<svg width="465" height="410" viewBox="0 0 465 410" fill="none" xmlns="http://www.w3.org/2000/svg">
<g clip-path="url(#clip0_31_171)">
<path d="M330 70H100V260H330V70Z" fill="white"/>
<path d="M120 170H0V290H120V170Z" fill="white"/>
<path d="M345 45H300V90H345V45Z" fill="white"/>
<path d="M315 0H265V50H315V0Z" fill="white"/>
<path d="M370 135H350V155H370V135Z" fill="white"/>
<path d="M388 170H380V178H388V170Z" fill="white"/>
<path d="M465 140H430V175H465V140Z" fill="white"/>
<path d="M325 370H285V410H325V370Z" fill="white"/>
<path d="M137 380H130V387H137V380Z" fill="white"/>
<path d="M90 305H70V325H90V305Z" fill="white"/>
<path d="M120 35H50V105H120V35Z" fill="white"/>
<path d="M55 20H30V45H55V20Z" fill="white"/>
<path d="M34 43H22V55H34V43Z" fill="white"/>
<path d="M330 70H100V260H330V70Z" fill="white" stroke="white"/>
</g>
<defs>
<clipPath id="clip0_31_171">
<rect width="465" height="410" fill="white"/>
</clipPath>
</defs>
</svg>
