<?xml version="1.0" encoding="UTF-8"?>
<svg id="_Слой_1" data-name="Слой 1"  xmlns="http://www.w3.org/2000/svg" viewBox="0 0 183.29 159.75">
  <defs>
    <style>
      
      .first {
        opacity: 0;
        transform: translateX(50px);
        animation: fadeInAndTranslate 1s 1.0s forwards;
      }

      @keyframes fadeInAndTranslate {
        0% {
          opacity: 0;
          transform: translateX(50px);
        }

        100% {
          opacity: 1;
          transform: translateX(0);
        }
      }

      .cls-1 {
        fill: none;
        stroke: #040505;
        stroke-miterlimit: 10;
        stroke-width: 2px;

        stroke-miterlimit: 10;
        stroke-dasharray: 800;
        stroke-dashoffset: 800;
        animation: one 5s ease forwards;
        animation-delay: 2s;
        -webkit-animation: one 5s ease forwards;
        -webkit-animation-delay: 2s;
      }

      .cls-2 {
        stroke-width: 2px;

        stroke-miterlimit: 10;
        stroke-dasharray: 800;
        stroke-dashoffset: 800;
        -webkit-animation: one 4.4s ease forwards;
        -webkit-animation-delay: 2.8s; 
      }

      .cls-2,
      .cls-3,
      .cls-4,
      .cls-5,
      .cls-6 {
        fill: none;
        stroke: #040505;
        stroke-miterlimit: 10;
      }


      @keyframes one {
        100% {
          stroke-dashoffset: 0;
          -webkit-stroke-dashoffset: 0;
        }
      }

      .cls-3 {
        stroke-miterlimit: 10; 
        stroke-dasharray: 1000;
        stroke-dashoffset: 1000;
        animation: three 2s linear forwards;
        animation-delay: 2.1s;
        -webkit-animation: three 2s linear forwards;
        -webkit-animation-delay: 2.1s;
        -moz-animation: three 2s linear forwards;
        -moz-animation-delay: 2.1s;
        /*     animation-direction: reverse; */
        /*     animation-iteration-count:odd; */
      }

      .cls-4 {
        stroke-miterlimit: 10;
        stroke-dasharray: 500;
        stroke-dashoffset: 500;
        animation: two 2s linear forwards;
        animation-delay: 2.12s;
        -webkit-animation: two 2s linear forwards;
        -webkit-animation-delay: 2.12s;
        -moz-animation: two 2s linear forwards;
        -moz-animation-delay: 2.12s;
      }

      .cls-5 {
        stroke-miterlimit: 10;
        stroke-dasharray: 500;
        stroke-dashoffset: 500;
        animation: two 2s linear forwards;
        animation-delay: 2.12s;
        -webkit-animation: two 2s linear forwards;
        -webkit-animation-delay: 2.12s;
        -moz-animation: two 2s linear forwards;
        -moz-animation-delay: 2.12s;
      }

      .cls-6 {
        stroke-miterlimit: 10;
        stroke-dasharray: 500;
        stroke-dashoffset: 500;
        animation: two 2s linear forwards;
        animation-delay: 2.12s;
        -webkit-animation: two 2s linear forwards;
        -webkit-animation-delay: 2.12s;
        -moz-animation: two 2s linear forwards;
        -moz-animation-delay: 2.12s;
      }

      @keyframes two {
        100% {
          stroke-dashoffset: 1000;
        }
      }

      @keyframes three {
        100% {
          stroke-dashoffset: 500;
        }
      }

      
    </style>
  </defs>


  <g class="first">
    <path class="E"
      d="M14.67,41.32c0,2.1-.46,3.75-1.37,4.96-.92,1.21-2.51,1.81-4.79,1.81h-2.28c-2.28,0-3.89-.6-4.82-1.81-.94-1.21-1.41-2.86-1.41-4.96v-12.8H2.01v13.13c0,1.16,.3,2.19,.9,3.08,.6,.89,1.62,1.34,3.05,1.34h2.75c1.43,0,2.45-.45,3.05-1.34,.6-.89,.9-1.92,.9-3.08V18.4H4.42v-2.08H12.66V7.22c0-1.16-.3-2.19-.9-3.08-.6-.89-1.62-1.34-3.05-1.34h-2.75c-1.43,0-2.45,.45-3.05,1.34-.6,.89-.9,1.92-.9,3.08v3.01H0v-2.61C0,5.52,.46,3.87,1.37,2.66,2.29,1.45,3.89,.83,6.16,.78h2.35c2.28,0,3.87,.6,4.79,1.81,.91,1.21,1.37,2.86,1.37,4.96V41.32Z" />
    <path class="N" d="M32.43,1.18V47.68h-2.01V18.34h-9.78v29.35h-2.01V1.18h2.01v15.14h9.78V1.18h2.01Z" />
    <path class="V"
      d="M49.71,10.43c0,3.66-1.47,5.96-4.42,6.9,1.56,.4,2.69,1.15,3.38,2.24,.69,1.1,1.04,2.58,1.04,4.46v16.82c0,2.14-.47,3.82-1.41,5.02-.94,1.21-2.55,1.81-4.82,1.81h-6.5V1.18h6.5c2.28,0,3.89,.6,4.82,1.81,.94,1.21,1.41,2.86,1.41,4.96v2.48Zm-8.24,5.9c2.14,0,3.72-.52,4.72-1.57,1-1.05,1.51-2.56,1.51-4.52v-2.61c0-1.16-.3-2.19-.9-3.08-.6-.89-1.62-1.34-3.05-1.34h-4.76v13.13h2.48Zm6.23,7.91c0-1.96-.46-3.43-1.37-4.39-.92-.96-2.45-1.44-4.59-1.44h-2.75v27.2h4.76c1.43,0,2.5-.45,3.22-1.34,.71-.89,.96-1.9,.74-3.02V24.23Z" />
    <path class="I" d="M67.62,47.68h-2.01V1.18h2.01V47.68Z" />
    <path class="I" d="M55.62,47.68h-2.01V1.18h2.01V47.68Z" />
    <line class="I" x1="66.1" y1="1.31" x2="55.62" y2="47.68" stroke="black" />

    <path class="P" d="M29.56,57.75v46.5h-2.01V59.76h-8.91v44.49h-2.01V57.75h12.93Z" />
    <path class="R"
      d="M42.15,57.75c2.28,0,3.89,.6,4.82,1.81,.94,1.21,1.41,2.88,1.41,5.02v20.03c0,2.14-.47,3.82-1.41,5.03-.94,1.21-2.55,1.81-4.82,1.81h-4.89s.33,10.18,1.08,14.32c.47,2.6-.75,8.54-1.07,7.1-2.21-10.02-2.14-13.98-2.39-19.34-.67-14.66-.13-35.79-.13-35.79h7.4Zm4.22,6.43c0-1.16-.3-2.19-.9-3.08-.6-.89-1.62-1.34-3.05-1.34h-5.16v29.61h5.16c1.43,0,2.45-.44,3.05-1.31,.6-.87,.9-1.89,.9-3.05v-20.84Z" />
    <path class="O"
      d="M67.14,97.89c0,2.1-.46,3.75-1.37,4.96-.92,1.21-2.51,1.81-4.79,1.81h-1.54c-2.28,0-3.89-.6-4.82-1.81-.94-1.21-1.41-2.86-1.41-4.96v-33.7c0-2.14,.47-3.82,1.41-5.03,.94-1.21,2.55-1.81,4.82-1.81h1.54c2.28,0,3.87,.6,4.79,1.81,.92,1.21,1.37,2.88,1.37,5.03v33.7Zm-2.01-34.1c0-1.16-.3-2.19-.9-3.08-.6-.89-1.62-1.34-3.05-1.34h-2.01c-1.43,0-2.45,.45-3.05,1.34-.6,.89-.9,1.92-.9,3.08v34.44c0,1.16,.3,2.19,.9,3.08,.6,.89,1.62,1.34,3.05,1.34h2.01c1.43,0,2.45-.45,3.05-1.34,.6-.89,.9-1.92,.9-3.08V63.78Z" />

  </g>

  <g class="second">
    <path class="cls-1"
      d="M36.47,98.71c3.2,33.04,24.34,53.39,49.25,51.73,19.62-1.31,48.31-19.46,46.71-61.72-.19-4.93-2.71-15.46-3.48-19.01-1.21-5.55-5.19-31.79-5.55-35.76-1.37-15.14-11.15-36.41-25.98-25.01-5.33,4.09-5.44,9.01-6.96,18.99-.71,4.63-4.89,5.84-11.58,12.14-6.08,5.74-9.41,18.64,4.61,26.07,15.84,8.4,36.52-4.52,36.52-4.52,0,0,22.4-12.71,37.84-11.29,12.5,1.14,19.95,5.46,21.27,13.18,1.32,7.72-5.5,14.32-10.92,20.14-5.08,5.46-3.96,6.53-9.22,15.44-3.95,6.68-13.27,4.06-17.65-2.52-4.53-6.82-7.15-18.85-4-31.73" />
    <path class="cls-2"
      d="M112.1,62.6c-15.67,1.69-29.93-1.41-33.46,8.33,0,0-4.09,12.42,9.6,19.06,0,0,5.51,3.11,9.04,7.62,3.53,4.52,12.71,12.14,23.44,5.65,12.39-7.5,9.74-39.81,9.74-39.81,0,0-.42-23.58-2.12-33.46s-.66-25.76,11.16-28.68c3.56-.88,9.9-.31,15.39,7.71,4.65,6.81,7.81,6.64,17.6,11.58,7.9,3.99,9.81,6.84,9.81,11.76,0,6.92-6.64,22.86-29.81,24.03-4.83,.24-14.87-.41-19.34,.28-5.66,.88-17.38,5.53-21.04,5.93Z" />
    <path class="cls-3"
      d="M36.19,100.03s.85,54.87,43.11,58.92c21.24,2.03,41.95-6.07,49.46-30.34,1.42-4.58,2.43-9.99,3.73-20.56,1.03-8.35,1.77-17.88-1-27.27" />
    <path class="cls-4"
      d="M125.46,49.05s-2.74-19.8-9.13-28.66c-7.39-10.25-21.6-5.07-23.29,4.24-1.53,8.39-2.02,12.93-5.22,17.36-4.56,6.31-22.2,14.68-9.18,28.94,0,0-1.13,12.8,.28,16.66,1.72,4.68,2.96,8.47,10.97,11.86,2.37,1,5.48,3.33,7.24,5.2,2.68,2.84,3.28,3.73,7.65,7.97,6.26,6.07,17.9,4.18,22.42-6.26,4.52-10.45,2.49-23.44,2.49-23.44" />
    <path class="cls-5"
      d="M179.27,68.67c3.01,8.77-2.27,14.71-5.16,17.24-2.98,2.62-6.87,6.35-9.69,13.55-1.77,4.52-2.95,12.43-13.93,11.56-8.66-.69-12.54-10.82-13.55-15.95-1.88-9.58-1.72-19.71-1.24-22.29" />
    <path class="cls-6"
      d="M128.77,33.05s-.51-12.3,5.92-18.87c6.58-6.72,12.92-4.11,17.01,.99,4.64,5.78,5.93,8.47,9.67,10.38,6.04,3.08,21.62,3.33,20.82,16.9-.64,10.88-7.42,13.51-7.42,13.51" />
  </g>
</svg>