<?xml version="1.0" encoding="utf-8"?>
<svg  version="1.1" id="Слой_1" xmlns="http://www.w3.org/2000/svg" xmlns:xlink="http://www.w3.org/1999/xlink" x="0px" y="0px"
     viewBox="-100 -100 1025.2 625.2" style="enable-background:new 0 0 425.2 425.2; background:#000; opacity:0.8" xml:space="preserve">
  
  <style>
  @import url('https://fonts.googleapis.com/css2?family=Bebas+Neue&family=Montserrat&display=swap');
</style>
<style type="text/css">
  
.st0{
		fill:#010202;
	}
.letterN-{
		fill:none;
		stroke:#010202;
		stroke-miterlimit:10;
	}
.first, .second {
  opacity:0;
  transform: translateX(50px);
    animation: fadeInAndTranslate 2s 2s forwards;
}

@keyframes fadeInAndTranslate {
    0% {
        opacity: 0;
        transform: translateX(50px);
    }
    100% {
        opacity: 1;
        transform: translateX(0);
    }
}

.st2-1{
		fill:none;
		stroke:#010202;
		stroke-width:2;
		stroke-miterlimit:10;
    stroke-dasharray:800;
    stroke-dashoffset:800;
    animation: one 8s 3.8s ease forwards;
	}

 @keyframes one {
  100% {
    stroke-dashoffset: 0;
  }
}
	.st2-2{
		fill:none;
		stroke:#010202;
		stroke-width:2;
		stroke-miterlimit:10;
	  stroke-dasharray:500;
    stroke-dashoffset:500;
    animation: two 4s 6s linear forwards;
	}

 @keyframes two {
  100% {
    stroke-dashoffset: 0;
  }
}
.st1{
		fill:none;
		stroke:#010202;
		stroke-miterlimit:10;
  stroke-dasharray:1000;
    stroke-dashoffset:1000;
    animation: three 10s 8s linear forwards;
	}

 @keyframes three {
  100% {
    stroke-dashoffset: 0;
  }
}
  .small {
    font-family: 'Bebas Neue', 'Montserrat';
    font-size: 10px;
    fill:#fff;
  }
</style>
  
  <rect x="100" y="100" width="230" height="190"  fill="white" stroke="white"></rect>
  
  <rect x="0" y="200" width="120" height="120"  fill="white" stroke="white"></rect>
  
  <text x="125" y="305" class="small">наш сайт находится в стадии разработки</text>
  <text x="135" y="320" class="small">сайт будет доступен уже очень скоро</text>
  
  <rect x="195" y="50" width="10" height="10" fill="white" stroke="white">
    <animateTransform
      attributeName="transform"
      attributeType="XML"
      type="rotate"
      from="0 200 200"
      to="360 200 200"
      dur="4s"
      repeatCount="indefinite"
    />
  </rect>
  <rect x="180" y="75" width="20" height="20"  fill="white" stroke="white">
    <animateTransform
      attributeName="transform"
      attributeType="XML"
      type="rotate"
      from="0 190 250"
      to="360 190 250"
      dur="6s"
      repeatCount="indefinite"
    />
  </rect>
  <rect x="300" y="75" width="50" height="50"  fill="white" stroke="white">
    <animateTransform
      attributeName="transform"
      attributeType="XML"
      type="rotate"
      from="0 220 200"
      to="360 220 200"
      dur="5.5s"
      repeatCount="indefinite"
    />
  </rect>
  
  <rect x="270" y="40" width="40" height="40"  fill="white" stroke="white">
    <animateTransform
      attributeName="transform"
      attributeType="XML"
      type="rotate"
      from="0 200 200"
      to="360 250 250"
      dur="8s"
      repeatCount="indefinite"
    />
  </rect>
  
  <rect x="350" y="165" width="20" height="20"  fill="white" stroke="white">
    <animateTransform
      attributeName="transform"
      attributeType="XML"
      type="rotate"
      from="0 200 300"
      to="360 300 300"
      dur="5.4s"
      repeatCount="indefinite"
    />
  </rect>
  
  <rect x="385" y="195" width="10" height="10"  fill="white" stroke="white">
    <animateTransform
      attributeName="transform"
      attributeType="XML"
      type="rotate"
      from="0 300 300"
      to="360 300 300"
      dur="6.2s"
      repeatCount="indefinite"
    />
  </rect>
  
  <rect x="430" y="165" width="35" height="35"  fill="white" stroke="white">
    <animateTransform
      attributeName="transform"
      attributeType="XML"
      type="rotate"
      from="0 200 200"
      to="360 200 200"
      dur="6s"
      repeatCount="indefinite"
    />
  </rect>
  
  <rect x="250" y="400" width="40" height="40"  fill="white" stroke="white">
    <animateTransform
      attributeName="transform"
      attributeType="XML"
      type="rotate"
      from="0 200 200"
      to="360 200 200"
      dur="7s"
      repeatCount="indefinite"
    />
  </rect>
  
  <rect x="130" y="410" width="10" height="10"  fill="white" stroke="white">
    <animateTransform
      attributeName="transform"
      attributeType="XML"
      type="rotate"
      from="0 200 200"
      to="360 200 200"
      dur="6.6s"
      repeatCount="indefinite"
    />
  </rect>
  
  <rect x="70" y="335" width="20" height="20"  fill="white" stroke="white">
    <animateTransform
      attributeName="transform"
      attributeType="XML"
      type="rotate"
      from="0 200 200"
      to="360 200 200"
      dur="4.6s"
      repeatCount="indefinite"
    />
  </rect>
  
  <rect x="50" y="65" width="70" height="70"  fill="white" stroke="white">
    <animateTransform
      attributeName="transform"
      attributeType="XML"
      type="rotate"
      from="0 200 200"
      to="360 200 200"
      dur="6s"
      repeatCount="indefinite"
    />
  </rect>
  
  <rect x="30" y="50" width="25" height="25"  fill="white" stroke="white">
    <animateTransform
      attributeName="transform"
      attributeType="XML"
      type="rotate"
      from="0 200 200"
      to="360 200 200"
      dur="5.6s"
      repeatCount="indefinite"
    />
  </rect>
  
  <rect x="20" y="75" width="10" height="10"  fill="white" stroke="white">
    <animateTransform
      attributeName="transform"
      attributeType="XML"
      type="rotate"
      from="0 200 200"
      to="360 200 200"
      dur="7.6s"
      repeatCount="indefinite"
    />
  </rect>
  
  
  
<g class="first">
<path class="letterE" d="M153.31,126.08v2.01h-10.32v13.13h7.77v2.01h-7.77v27.34h10.32v2.01h-12.33v-46.5H153.31z"/>
<path class="letterN" d="M158.4,126.08h2.01v46.5h-2.01V126.08z"/>
<line class="letterN-" x1="159.92" y1="126.2" x2="170.4" y2="172.58"/>
<path class="letterN" d="M170.4,126.08h2.01v46.5h-2.01V126.08z"/>
<path class="letterV" d="M192.06,125.88h2.22l-7.56,46.5h-3.64l-6.74-46.5h2.22l6.41,44.61L192.06,125.88z"/>
<path class="letterI" d="M198.4,126.08h2.01v46.5h-2.01V126.08z"/>
</g>
<g class="second" >
	<path class="letterP" d="M156.31,181.65c2.28,0,3.89,0.6,4.82,1.81c0.94,1.21,1.41,2.88,1.41,5.02v20.03c0,2.14-0.47,3.82-1.41,5.02
		c-0.94,1.21-2.55,1.81-4.82,1.81h-4.89v12.8h-2.01v-46.5H156.31z M160.54,188.08c0-1.16-0.3-2.19-0.9-3.08
		c-0.6-0.89-1.62-1.34-3.05-1.34h-5.16v29.61h5.16c1.43,0,2.45-0.44,3.05-1.31c0.6-0.87,0.9-1.89,0.9-3.05V188.08z"/>
	<path class="letterR" d="M182.04,228.15h-2.08l-4.69-17.35h-4.89v17.35h-2.01v-46.5h7.04c2.28,0,3.89,0.6,4.82,1.81
		c0.94,1.21,1.41,2.88,1.41,5.02v15.48c0,1.79-0.34,3.25-1,4.39c-0.67,1.14-1.79,1.89-3.35,2.24L182.04,228.15z M175.68,208.78
		c1.43,0,2.45-0.45,3.05-1.34c0.6-0.89,0.9-1.92,0.9-3.08v-16.28c0-1.16-0.3-2.19-0.9-3.08c-0.6-0.89-1.62-1.34-3.05-1.34h-5.29
		v25.12H175.68z"/>
	<path class="letterO" d="M200.73,221.78c0,2.1-0.46,3.75-1.37,4.96c-0.92,1.21-2.51,1.81-4.79,1.81h-1.54c-2.28,0-3.89-0.6-4.82-1.81
		c-0.94-1.21-1.41-2.86-1.41-4.96v-33.7c0-2.14,0.47-3.82,1.41-5.02c0.94-1.21,2.55-1.81,4.82-1.81h1.54c2.28,0,3.87,0.6,4.79,1.81
		c0.91,1.21,1.37,2.88,1.37,5.02V221.78z M198.72,187.68c0-1.16-0.3-2.19-0.9-3.08c-0.6-0.89-1.62-1.34-3.05-1.34h-2.01
		c-1.43,0-2.45,0.45-3.05,1.34c-0.6,0.89-0.9,1.92-0.9,3.08v34.44c0,1.16,0.3,2.19,0.9,3.08c0.6,0.89,1.62,1.34,3.05,1.34h2.01
		c1.43,0,2.45-0.45,3.05-1.34c0.6-0.89,0.9-1.92,0.9-3.08V187.68z"/>
</g>
<g>
<path class="st2-1" d="M180.75,227.29c0,0,10.94,42.35,44.99,40.28c12.42-0.75,42.07-12.71,40.47-54.96
	c-0.19-4.93-2.16-15.62-3.48-19.01c-1.32-3.39-4.99-31.81-5.55-35.76s-6.58-36.44-26.26-26.73c-7.06,3.48-5.89,9.93-6.68,20.71
	c-0.29,3.96-4.89,5.84-11.58,12.14c-6.08,5.74-9.41,18.64,4.61,26.07c15.84,8.4,36.52-4.52,36.52-4.52s22.4-12.71,37.84-11.29
	c12.5,1.14,19.95,5.46,21.27,13.18c1.32,7.72-5.5,14.32-10.92,20.14c-5.08,5.46-3.96,6.53-9.22,15.44
	c-3.95,6.68-13.6,6.36-17.62-0.45c-2.62-4.44-6.38-19.69-4.03-33.81"/>
<path class="st2-2" d="M245.88,186.5c-15.31,3.76-30.07-1.46-33.46,8.33c-1.74,5.04,0.24,13.74,9.6,19.06c0,0,5.51,3.11,9.04,7.62
	c3.53,4.52,12.71,12.14,23.44,5.65c12.39-7.5,9.74-39.81,9.74-39.81s-0.42-23.58-2.12-33.46c-1.69-9.88-3.49-27.02,11.15-28.15
	c3.75-0.29,8.94,1.14,14.81,8.82c5.01,6.55,7.31,5.31,17.1,10.25c7.9,3.99,9.92,6.49,9.92,11.42c0,6.92-5.67,22.9-28.84,24.06
	c-4.83,0.24-14.87-0.41-19.34,0.28C261.26,181.44,250.33,185.4,245.88,186.5z"/>
<path class="st1" d="M179.53,223.06c0,0,8.61,50.26,42.21,52.8c0,0,26.02,2.64,37.98-20.61c2.29-4.45,5.25-12.74,6.55-23.3
	c1.03-8.35,1.77-17.88-1-27.27"/>
<path class="st1" d="M258.93,170.68c0,0-4.13-19.98-8.81-26.4c-6.87-9.41-21.84-8.09-23.29,4.24c-1,8.47,0.71,10.74-5.22,17.36
	c-7.62,8.52-22.2,14.68-9.18,28.94c0,0-0.57,6.77-0.57,9.85c0,13.68,3.82,15.28,11.82,18.67c2.37,1,5.48,3.33,7.24,5.2
	c2.68,2.84,5.65,6.35,7.65,7.97c4.68,3.79,17.9,4.18,22.42-6.26c4.52-10.45,2.49-23.44,2.49-23.44"/>
<path class="st1" d="M313.06,192.57c1.39,12.42-3.46,15.25-6.57,17.51s-5.08,1.88-8.56,12.99c-1.35,4.31-4.33,12.8-13.65,11.86
	c-9.62-0.97-12.4-10.85-13.55-15.95c-2.16-9.55-1.08-18-0.85-20.49"/>
<path class="st1" d="M263.26,164.61c0,0-1.21-19.97,5.21-26.54c6.58-6.72,12.92-4.11,17.01,0.99c4.64,5.78,7.05,9,10.79,10.91
	c6.04,3.08,21.42,4.76,20.2,17.84c-1.01,10.85-7.92,12.04-7.92,12.04"/>
</g>


  

</svg>
