<svg width="426" height="426" viewBox="0 0 426 426" fill="none" xmlns="http://www.w3.org/2000/svg">

<style type="text/css">
body {
  -webkit-transform: translate3d(0,0,0);
  transform: unset !important;
  scale:(6)
}
  
.first {
  opacity:0;
  transform: translateX(50px);
    animation: fadeInAndTranslate 1s 1.0s forwards;
}

@keyframes fadeInAndTranslate {
    0% {
        opacity: 0;
        transform: translateX(50px);
    }
    100% {
        opacity: 1;
        transform: translateX(0);
    }
}


.st1{
		stroke-miterlimit:10;
    stroke-dasharray:800;
    stroke-dashoffset:800;
    animation: one 5s ease forwards;
    animation-delay: 2s;
    -webkit-animation: one 5s ease forwards;
    -webkit-animation-delay: 2s;
	}

.st1-1{
		
		stroke-miterlimit:10;
    stroke-dasharray:800;
    stroke-dashoffset:800;
    animation: one 5s ease forwards;
    animation-delay: 2s;
    -webkit-animation: one 5s ease forwards;
    -webkit-animation: 2s;
	}
.st2-1{
		
		stroke-miterlimit:10;
    stroke-dasharray:800;
    stroke-dashoffset:800;
    -webkit-animation: one 4s ease forwards;
    -webkit-animation-delay: 2.8s;
	}
 @keyframes one {
  100% {
    stroke-dashoffset: 0;
    -webkit-stroke-dashoffset: 0;
  }
}
	.st3{
		stroke-miterlimit:10;
	  stroke-dasharray:500;
    stroke-dashoffset:500;
    animation: two 2s linear forwards;
    animation-delay: 2.1s;
    -webkit-animation: two 2s linear forwards;
    -webkit-animation-delay: 2.1s;
    -moz-animation: two 2s linear forwards;
    -moz-animation-delay: 2.1s;
/*     animation-direction: reverse; */
/*     animation-iteration-count:odd; */
	}
.st3-1{
		stroke-miterlimit:10;
	  stroke-dasharray:500;
    stroke-dashoffset:500;
    animation: two 2s linear forwards;
    animation-delay: 2.12s; 
    -webkit-animation: two 2s linear forwards;
    -webkit-animation-delay: 2.12s; 
    -moz-animation: two 2s linear forwards;
    -moz-animation-delay: 2.12s; 
	}

 @keyframes two {
  100% {
    stroke-dashoffset: 1000;
  }
}
.st4{
		stroke-miterlimit:10;
	  stroke-dasharray:500;
    stroke-dashoffset:500;
    animation: five 1.6s linear forwards;
    animation-delay: 4.45s;
    -webkit-animation: five 1.6s linear forwards;
    -webkit-animation-delay: 4.45s;
    -moz-animation: five 1.6s linear forwards;
    -moz-animation-delay: 4.45s;
	} 
.st4-1{ 
		stroke-miterlimit:10; 
	  stroke-dasharray:500; 
    stroke-dashoffset:500;
    animation: five 1.8s linear forwards;
    animation-delay: 4.8s;
    -webkit-animation: five 1.8s linear forwards;
    -webkit-animation-delay: 4.8s;
    -moz-animation: five 1.8s linear forwards;
    -moz-animation-delay: 4.8s;
	}
@keyframes five {
  100% {
    stroke-dashoffset: 0;
   }
}
 
.st5 {
    stroke-miterlimit: 10;
    stroke-dasharray: 550;
    stroke-dashoffset: 550;
    -webkit-animation: four 1.6s linear forwards;
    -webkit-animation-delay: 4.12s;
    animation: four 1.6s linear forwards;
    animation-delay: 4.12s;
}
 
.st5-1 {
    stroke-miterlimit: 10;
    stroke-dasharray: 600;
    stroke-dashoffset: 600;
    -webkit-animation: four 2s linear forwards;
    -webkit-animation-delay: 4.17s;
    animation: four 2s linear forwards;
    animation-delay: 4.17s;
}

@-webkit-keyframes four {
    100% {
        stroke-dashoffset: 0;
    }
}

@keyframes four {
    100% {
        stroke-dashoffset: 0;
    }
}


    
   
 
</style>

<g class="first">    
  <path class="E" d="M153.31 126.08V128.09H142.99V141.22H150.76V143.23H142.99V170.57H153.31V172.58H140.98V126.08H153.31Z" fill="black"/>
  <path class="N" d="M158.4 126.08H160.41V172.58H158.4V126.08Z" fill="black"/>
  <path class="N" d="M170.4 126.08H172.41V172.58H170.4V126.08Z" fill="black"/>
  <path class="I" d="M198.4 126.08H200.41V172.58H198.4V126.08Z" fill="black"/>
  <path class="P" d="M156.31 181.65C158.59 181.65 160.2 182.25 161.13 183.46C162.07 184.67 162.54 186.34 162.54 188.48V208.51C162.54 210.65 162.07 212.33 161.13 213.53C160.19 214.74 158.58 215.34 156.31 215.34H151.42V228.14H149.41V181.64H156.31V181.65ZM160.54 188.08C160.54 186.92 160.24 185.89 159.64 185C159.04 184.11 158.02 183.66 156.59 183.66H151.43V213.27H156.59C158.02 213.27 159.04 212.83 159.64 211.96C160.24 211.09 160.54 210.07 160.54 208.91V188.08Z" fill="black"/>
  <path class="R" d="M182.04 228.15H179.96L175.27 210.8H170.38V228.15H168.37V181.65H175.41C177.69 181.65 179.3 182.25 180.23 183.46C181.17 184.67 181.64 186.34 181.64 188.48V203.96C181.64 205.75 181.3 207.21 180.64 208.35C179.97 209.49 178.85 210.24 177.29 210.59L182.04 228.15ZM175.68 208.78C177.11 208.78 178.13 208.33 178.73 207.44C179.33 206.55 179.63 205.52 179.63 204.36V188.08C179.63 186.92 179.33 185.89 178.73 185C178.13 184.11 177.11 183.66 175.68 183.66H170.39V208.78H175.68Z" fill="black"/>
  <path class="O" d="M200.73 221.78C200.73 223.88 200.27 225.53 199.36 226.74C198.44 227.95 196.85 228.55 194.57 228.55H193.03C190.75 228.55 189.14 227.95 188.21 226.74C187.27 225.53 186.8 223.88 186.8 221.78V188.08C186.8 185.94 187.27 184.26 188.21 183.06C189.15 181.85 190.76 181.25 193.03 181.25H194.57C196.85 181.25 198.44 181.85 199.36 183.06C200.27 184.27 200.73 185.94 200.73 188.08V221.78ZM198.72 187.68C198.72 186.52 198.42 185.49 197.82 184.6C197.22 183.71 196.2 183.26 194.77 183.26H192.76C191.33 183.26 190.31 183.71 189.71 184.6C189.11 185.49 188.81 186.52 188.81 187.68V222.12C188.81 223.28 189.11 224.31 189.71 225.2C190.31 226.09 191.33 226.54 192.76 226.54H194.77C196.2 226.54 197.22 226.09 197.82 225.2C198.42 224.31 198.72 223.28 198.72 222.12V187.68Z" fill="black"/>
  <path class="V" d="M192.06 125.88H194.28L186.72 172.38H183.08L176.34 125.88H178.56L184.97 170.49L192.06 125.88Z" fill="black"/>
  <path class="N-" d="M159.92 126.2L170.4 172.58" stroke="black" stroke-miterlimit="10"/>
    
</g>
    
<g class="second">
  <path class="st2-1" d="M258.717 170.57C258.717 170.57 254.587 150.59 249.907 144.17C243.027 134.76 228.067 136.07 226.607 148.4C225.607 156.87 227.317 159.14 221.387 165.76C213.767 174.28 199.187 180.44 212.207 194.7" stroke="black" stroke-miterlimit="10"/>
  <path class="st1-1" d="M180 222.38C180 222.38 188.61 272.64 222.21 275.18C222.21 275.18 248.23 277.82 260.19 254.57C262.48 250.12 265.44 241.83 266.74 231.27C267.77 222.92 268.51 213.39 265.74 204" stroke="black" stroke-miterlimit="10"/>
  <path class="st1" d="M181 226.989C181 226.989 191.94 269.339 225.99 267.269C238.41 266.519 268.06 254.559 266.46 212.309C266.27 207.379 264.3 196.689 262.98 193.299C261.66 189.909 257.99 161.489 257.43 157.539C256.87 153.589 250.84 121.099 231.16 130.799C224.1 134.279 225.27 140.729 224.48 151.509C224.19 155.469 219.59 157.349 212.9 163.649C206.82 169.389 203.49 182.289 217.51 189.719C233.35 198.119 254.03 185.199 254.03 185.199C254.03 185.199 259 183 262.5 181" stroke="black" stroke-width="2" stroke-miterlimit="10"/>
  <path class="st4-1" d="M312.661 192C314.051 204.42 309.201 207.25 306.091 209.51C302.981 211.77 301.011 211.39 297.531 222.5C296.181 226.81 293.201 235.3 283.881 234.36C274.261 233.39 271.481 223.51 270.331 218.41C268.161 208.84 269.241 200.39 269.481 197.91" stroke="black" stroke-miterlimit="10"/>
  <path class="st4" d="M217 189.921C232.84 198.321 253.52 185.401 253.52 185.401C253.52 185.401 275.92 172.691 291.36 174.111C303.86 175.251 311.31 179.571 312.63 187.291C313.95 195.011 307.13 201.611 301.71 207.431C296.63 212.891 297.75 213.961 292.49 222.871C288.54 229.551 278.89 229.231 274.87 222.421C272.25 217.981 268.49 202.731 270.84 188.611" stroke="black" stroke-width="2" stroke-miterlimit="10"/>
  <path class="st3-1" d="M263.091 164.581C263.091 164.581 261.881 144.601 268.301 138.041C274.881 131.321 281.221 133.921 285.311 139.031C289.951 144.811 292.361 148.031 296.101 149.941C302.141 153.021 317.521 154.701 316.301 167.781C315.291 178.631 308.381 179.821 308.381 179.821" stroke="black" stroke-miterlimit="10"/>
  <path class="st3" d="M264.07 181.587C264.05 181.287 264.07 178.284 264.07 177.984C264 174.614 264.07 163.324 262.71 154.184C261.24 144.264 259.22 127.164 273.86 126.034C277.61 125.744 282.8 127.174 288.67 134.854C293.68 141.404 295.98 140.164 305.76 145.104C313.66 149.094 315.68 151.594 315.68 156.524C315.68 163.444 310.01 179.424 286.84 180.584C282.01 180.824 271.97 180.174 267.5 180.864C261.84 181.744 264.45 180.91 260 182" stroke="black" stroke-width="2" stroke-miterlimit="10"/>
  <path class="st5-1" d="M263.5 207C263.5 207 265.287 219.68 260.767 230.13C256.247 240.58 243.027 240.18 238.347 236.39C236.347 234.77 233.377 231.26 230.697 228.42C228.937 226.55 225.827 224.22 223.457 223.22C215.457 219.83 211.5 218.5 212 203" stroke="black" stroke-miterlimit="10"/>

  <path class="st5" d="M264 179.5C264 180 264.4 187.79 264.42 188.09C264.68 191.93 266.2 220.49 254.65 227.48C243.92 233.97 234.74 226.35 231.21 221.83C227.68 217.32 222.17 214.21 222.17 214.21C212.81 208.89 210.83 200.19 212.57 195.15C215.96 185.36 230.72 190.59 246.03 186.83C250.48 185.74 259 183 264.062 181" stroke="black" stroke-width="2" stroke-miterlimit="10"/>

</g>

</svg>
